solid OpenSCAD_Model
  facet normal 1 0 0
    outer loop
      vertex 12 75 4
      vertex 12 80.5 8
      vertex 12 75 8
    endloop
  endfacet
  facet normal 1 0 0
    outer loop
      vertex 12 80.5 8
      vertex 12 75 4
      vertex 12 80.5 0
    endloop
  endfacet
  facet normal 1 0 0
    outer loop
      vertex 12 71.5 0
      vertex 12 75 4
      vertex 12 71.5 4
    endloop
  endfacet
  facet normal 1 0 0
    outer loop
      vertex 12 75 4
      vertex 12 71.5 0
      vertex 12 80.5 0
    endloop
  endfacet
  facet normal -0 0 1
    outer loop
      vertex 3 75 4
      vertex 12 71.5 4
      vertex 12 75 4
    endloop
  endfacet
  facet normal 0 0 1
    outer loop
      vertex 12 71.5 4
      vertex 3 75 4
      vertex 3 71.5 4
    endloop
  endfacet
  facet normal 0 0 -1
    outer loop
      vertex 3 71.5 0
      vertex 12 80.5 0
      vertex 12 71.5 0
    endloop
  endfacet
  facet normal -0 0 -1
    outer loop
      vertex 12 80.5 0
      vertex 3 71.5 0
      vertex 3 80.5 0
    endloop
  endfacet
  facet normal -1 0 0
    outer loop
      vertex 3 80.5 0
      vertex 3 75 4
      vertex 3 80.5 8
    endloop
  endfacet
  facet normal -1 0 0
    outer loop
      vertex 3 71.5 0
      vertex 3 75 4
      vertex 3 80.5 0
    endloop
  endfacet
  facet normal -1 -0 0
    outer loop
      vertex 3 75 4
      vertex 3 71.5 0
      vertex 3 71.5 4
    endloop
  endfacet
  facet normal -1 -0 0
    outer loop
      vertex 3 80.5 8
      vertex 3 75 4
      vertex 3 75 8
    endloop
  endfacet
  facet normal 0 1 -0
    outer loop
      vertex 12 80.5 0
      vertex 3 80.5 8
      vertex 12 80.5 8
    endloop
  endfacet
  facet normal 0 1 0
    outer loop
      vertex 3 80.5 8
      vertex 12 80.5 0
      vertex 3 80.5 0
    endloop
  endfacet
  facet normal 0 -1 0
    outer loop
      vertex 3 71.5 0
      vertex 12 71.5 4
      vertex 3 71.5 4
    endloop
  endfacet
  facet normal 0 -1 -0
    outer loop
      vertex 12 71.5 4
      vertex 3 71.5 0
      vertex 12 71.5 0
    endloop
  endfacet
  facet normal -0 0 1
    outer loop
      vertex 3 80.5 8
      vertex 12 75 8
      vertex 12 80.5 8
    endloop
  endfacet
  facet normal 0 0 1
    outer loop
      vertex 12 75 8
      vertex 3 80.5 8
      vertex 3 75 8
    endloop
  endfacet
  facet normal 0 -1 0
    outer loop
      vertex 3 75 4
      vertex 12 75 8
      vertex 3 75 8
    endloop
  endfacet
  facet normal 0 -1 -0
    outer loop
      vertex 12 75 8
      vertex 3 75 4
      vertex 12 75 4
    endloop
  endfacet
endsolid OpenSCAD_Model
